<svg version="1.1" id="Layer_1" xmlns="http://www.w3.org/2000/svg" xmlns:xlink="http://www.w3.org/1999/xlink" x="0px" y="0px"
	 width="100%" viewBox="0 0 560 1024" enable-background="new 0 0 560 1024" xml:space="preserve">
<path fill="#000000" opacity="1.000000" stroke="none" 
	d="
M234.980804,440.011780 
	C238.914963,438.549744 241.129059,434.977692 244.115631,432.387634 
	C260.146332,418.484894 279.157745,413.280273 299.848480,412.692780 
	C309.614014,412.415497 319.377411,412.048523 329.144318,411.841614 
	C332.172394,411.777466 335.036041,412.857513 337.860443,413.868774 
	C349.656403,418.092102 360.321259,424.667938 371.459625,430.245239 
	C374.326660,431.680847 376.858521,434.257935 378.876770,436.833740 
	C387.061401,447.279419 396.825073,456.485321 403.114777,468.447449 
	C405.327179,472.655121 408.132111,478.213379 411.937561,479.558258 
	C418.814911,481.988647 420.492859,489.982239 427.873962,491.698883 
	C430.995361,492.424835 433.142059,497.316071 435.746002,500.301605 
	C437.338257,502.127228 438.990936,503.885681 441.226135,504.919678 
	C442.385651,503.419281 441.153412,502.867981 440.580261,502.242462 
	C428.517151,489.076385 420.144287,473.631866 412.994995,457.453796 
	C407.643738,445.344574 399.262848,435.585754 389.932892,426.415314 
	C384.791748,421.362030 379.560730,416.619781 373.032593,413.406982 
	C371.516907,412.661011 369.706604,411.844055 369.110565,409.530792 
	C375.131378,409.457031 380.084747,412.388336 386.553864,414.680481 
	C382.861908,410.874512 384.728119,409.518188 387.763489,408.594299 
	C389.869659,407.953247 392.164337,407.234161 394.147766,408.010895 
	C404.123657,411.917603 415.882721,411.766724 422.993683,422.209961 
	C426.630463,427.550964 433.846649,426.930359 439.605103,427.731110 
	C448.326324,428.943848 456.962463,430.795593 465.827881,431.233673 
	C471.960663,431.536713 477.883514,434.055695 481.170288,439.474823 
	C486.450073,448.180023 494.958069,452.340485 503.391693,456.567108 
	C512.345825,461.054657 517.542419,468.112457 520.789673,477.377228 
	C523.816895,486.014282 526.270386,494.978912 530.036560,503.192993 
	C534.096741,512.048401 537.956360,521.599487 546.768005,527.557373 
	C549.376038,529.320740 552.821472,531.624695 551.178101,535.617554 
	C549.469055,539.769836 545.546326,540.436707 541.467773,540.006958 
	C534.188171,539.239868 526.899475,538.531921 519.642517,537.585205 
	C512.784912,536.690552 509.718750,538.730042 508.391541,545.575500 
	C507.947998,547.863098 507.706909,550.190735 507.240540,552.472961 
	C506.179688,557.664368 503.489441,558.623596 499.147247,555.461121 
	C498.126404,554.717590 497.558594,553.294922 495.772949,553.280396 
	C496.681885,555.470886 497.582550,557.528198 498.362061,559.630371 
	C498.493927,559.986023 498.104004,560.535095 497.548187,562.251404 
	C489.250610,555.327820 483.375031,546.744812 475.428650,540.267517 
	C467.543488,533.840149 461.168671,525.559875 453.378571,518.662170 
	C452.877045,522.907898 457.828766,525.678284 454.145050,530.120667 
	C465.017090,530.161926 467.420502,537.655518 469.460968,545.475220 
	C468.493866,546.806946 467.262177,545.062866 466.247406,545.813965 
	C466.288177,546.111877 466.218567,546.569580 466.385864,546.685547 
	C471.656311,550.339722 470.784302,556.834595 473.307312,561.787415 
	C478.513000,572.006775 485.433350,580.735901 493.483612,588.819763 
	C504.089783,599.470276 507.267365,612.121826 504.824463,627.220520 
	C501.972198,644.849609 490.852692,657.000244 479.838287,669.272949 
	C474.948730,674.721130 468.051880,678.210388 461.224945,681.461853 
	C468.748444,682.284790 474.895935,678.495972 481.413330,675.717407 
	C488.050751,672.887634 493.388123,668.210632 499.971252,663.005432 
	C496.079590,675.093323 486.073334,678.187683 478.008057,683.721252 
	C481.849182,681.902466 485.682007,680.065979 489.534119,678.270874 
	C492.358246,676.954895 494.128693,677.523560 496.123169,680.368347 
	C501.444611,687.958313 505.225983,695.806885 504.147888,705.394287 
	C504.012054,706.601929 504.602570,708.071350 505.277466,709.158081 
	C507.874542,713.340149 507.172913,717.008667 504.052246,720.564026 
	C501.456177,723.521667 499.964294,727.192871 499.407959,730.934509 
	C498.801361,735.014160 497.025604,738.029236 494.115967,740.759399 
	C491.069153,743.618103 487.910492,746.816589 486.798981,750.758972 
	C484.437317,759.135681 477.204468,762.055176 470.694092,764.319397 
	C464.544189,766.458313 459.626404,768.377319 458.337280,775.438721 
	C447.425232,772.828735 436.759094,774.265320 426.156738,774.013367 
	C415.897980,773.769592 409.049377,768.839294 406.254669,759.130127 
	C402.577209,746.354309 398.392029,743.692566 385.087219,745.911255 
	C381.150208,746.567871 377.285706,747.648926 373.362122,748.400330 
	C370.886993,748.874329 368.338318,749.151733 367.530518,745.320374 
	C362.976746,748.623962 358.791473,752.104553 354.982208,756.013733 
	C350.183594,760.938049 342.955933,762.145569 336.198364,758.998108 
	C336.248871,758.854065 336.308685,758.581238 336.348602,758.584106 
	C347.375702,759.379578 353.112518,751.288879 359.772186,744.705811 
	C364.013214,740.513428 369.148895,737.208801 372.325623,731.962708 
	C372.831116,731.127991 373.705017,730.463501 373.391937,729.283325 
	C372.366089,728.173279 371.430511,728.944824 370.946838,729.717102 
	C367.798492,734.744080 364.237946,733.621277 359.059265,732.484863 
	C354.739075,731.536926 348.078979,731.105896 344.446655,735.888428 
	C338.899872,743.191711 331.495422,742.243225 323.824493,742.046814 
	C312.790833,741.764404 303.348969,737.628174 294.361725,731.697449 
	C285.760620,726.021484 276.843964,720.860840 270.372589,712.456360 
	C268.091034,709.493286 264.622528,707.618469 260.932404,706.050964 
	C261.114471,708.617188 263.725067,709.424316 264.552094,712.157593 
	C260.156250,709.430420 257.475800,705.877869 254.621017,702.576599 
	C245.665710,692.220642 233.027679,686.565186 222.991943,677.598267 
	C220.412766,675.293640 219.402649,678.531982 217.429123,678.986328 
	C219.962433,686.607727 225.572128,691.627502 230.752533,696.565613 
	C242.436462,707.703125 253.219147,719.743774 264.909760,730.796936 
	C276.516174,741.770569 290.266785,750.106140 305.744843,755.041260 
	C306.981903,755.435669 308.425354,755.457336 308.888489,757.048950 
	C304.413391,759.126892 300.130920,758.278015 286.631073,752.904968 
	C291.116058,755.864685 295.705933,758.453735 301.341858,758.804382 
	C311.130493,759.413269 320.913696,760.140137 330.683502,760.996155 
	C332.752777,761.177429 334.997894,761.307434 337.177277,762.938843 
	C335.204010,765.589966 332.219269,765.551025 329.651093,765.853699 
	C321.753540,766.784302 314.848877,769.538330 307.866119,773.637512 
	C297.670349,779.622803 286.135162,783.241821 274.137756,783.373535 
	C268.606934,783.434265 263.324615,780.553650 258.201233,778.171204 
	C255.194397,776.773010 252.267944,775.139954 248.886459,774.682495 
	C243.784210,773.992249 238.802933,773.557190 235.844055,767.966797 
	C234.900192,766.183411 231.051407,766.101013 228.744598,764.848389 
	C215.987061,757.921204 205.153061,748.393250 193.820633,739.454041 
	C181.938065,730.080811 172.923447,718.186646 162.749863,707.316772 
	C159.405563,703.743530 154.419586,703.139282 151.239380,699.720886 
	C143.190414,691.069031 134.380264,683.240540 125.225342,675.822144 
	C118.283005,670.196533 110.015686,666.216064 104.451614,658.878296 
	C96.699905,648.655518 89.041008,638.327454 84.346359,626.286438 
	C81.938103,620.109680 83.911751,613.770142 85.804008,607.735168 
	C87.094398,603.619751 89.027473,599.709534 90.559906,595.664734 
	C91.475006,593.249268 92.750671,591.064514 94.937439,589.743530 
	C97.804848,588.011475 100.706879,586.437561 101.406059,582.589966 
	C106.600021,584.459290 110.218834,587.711304 114.858688,590.819092 
	C114.402756,588.653015 112.443047,587.039673 114.212318,585.535156 
	C116.166824,583.873169 117.646240,585.722778 119.119293,586.535950 
	C122.179604,588.225281 125.130028,590.115295 128.107132,591.952881 
	C129.523926,592.827393 130.884842,594.049011 132.628677,591.936829 
	C132.560959,590.535828 129.429184,589.193298 132.098145,587.274109 
	C132.769684,586.791260 132.087250,585.700684 131.613495,585.019043 
	C128.485153,580.518555 125.767448,575.639038 122.105499,571.621765 
	C113.683182,562.382202 109.856758,551.856323 110.622643,539.357788 
	C110.924904,534.425232 110.121620,529.401184 109.578072,524.445496 
	C108.531746,514.905762 109.996666,505.933716 114.660751,497.446136 
	C116.329918,494.408630 117.324409,491.000336 118.962273,487.240173 
	C119.552292,486.452393 119.806885,486.185730 120.061478,485.919067 
	C129.170120,478.489166 137.325867,469.927124 148.479645,465.077545 
	C158.240433,460.833649 168.284210,460.082733 178.745453,460.538391 
	C178.056854,458.659943 177.512085,457.173828 176.953186,455.649200 
	C175.107193,454.969452 172.014465,456.003754 171.766251,453.014038 
	C171.564301,450.581421 174.235260,450.226746 175.972855,449.379761 
	C182.532379,446.182251 188.184143,441.981598 191.972305,435.545685 
	C198.446121,424.546936 208.674042,421.005066 220.760376,421.293427 
	C224.246506,421.376587 225.616974,425.363129 228.686707,425.286285 
	C229.744736,427.348114 227.879608,428.084442 227.805176,429.730316 
	C233.847900,428.084229 239.204285,423.558136 246.419327,426.128967 
	C231.593994,433.648254 219.797104,444.776123 208.221680,456.188843 
	C209.031357,458.404419 211.042374,457.396057 212.603271,457.882782 
	C212.285767,460.228577 207.723190,460.366730 210.082718,464.782440 
	C218.935806,458.388062 226.478424,450.993134 233.258972,441.903198 
	C234.070190,440.959412 234.525497,440.485596 234.980804,440.011780 
M182.856827,591.796143 
	C170.700211,589.938110 159.662674,586.028381 151.714676,575.824951 
	C140.664673,561.639221 138.129028,545.478638 140.323334,528.197449 
	C140.564987,526.294250 141.537277,524.365601 142.576813,522.702637 
	C146.849365,515.867188 165.094757,508.446381 172.954849,510.520172 
	C184.244873,513.498901 194.979004,518.307251 205.253357,523.523682 
	C214.813690,528.377747 223.903076,534.339478 233.400116,539.510742 
	C247.794739,547.348816 259.774841,558.684753 273.099976,568.092712 
	C274.584808,569.141052 275.794312,571.252625 279.432281,569.511658 
	C274.873474,566.683899 272.820282,562.699951 272.017426,558.106079 
	C271.537842,555.361877 270.176727,553.132385 268.359589,551.130432 
	C266.417664,548.991089 265.546631,546.393188 264.460236,543.756348 
	C262.772095,539.658936 262.651001,534.189941 257.362976,532.453308 
	C254.688354,531.574951 253.241058,530.396484 253.943970,527.483582 
	C254.260391,526.172363 253.584595,525.261719 252.867096,524.318054 
	C248.961884,519.182068 245.070190,514.035828 241.305893,509.067413 
	C239.222061,509.356201 237.738098,511.997650 236.046188,509.790222 
	C234.451431,507.709564 237.447403,506.816437 237.813553,505.026398 
	C235.640045,501.256714 232.199265,499.528259 227.979874,499.392761 
	C226.507050,499.345459 225.193161,499.463196 224.949677,497.727692 
	C224.512436,494.610931 221.930557,493.882568 219.680710,493.019806 
	C204.469284,487.186493 189.702301,479.942474 173.534622,477.020782 
	C164.863861,475.453918 155.977005,474.878815 147.460434,478.286346 
	C144.462570,479.485809 141.714172,480.757141 143.420517,485.254150 
	C144.849701,489.020630 142.097610,493.411591 138.100143,493.856140 
	C135.290573,494.168549 134.200150,496.028046 132.568436,497.542419 
	C127.961258,501.818237 125.744804,507.512146 123.574928,513.163635 
	C120.626930,520.841797 118.486855,528.984375 119.542976,537.068298 
	C121.561745,552.520691 127.670975,566.604797 137.553909,578.734680 
	C144.478714,587.233887 152.774948,594.695007 159.082626,603.594971 
	C165.153870,612.161255 172.658707,618.539917 181.378174,623.850281 
	C192.695724,630.742859 203.157486,638.390137 210.640549,649.790161 
	C216.159225,658.197449 222.410706,666.255737 231.565353,671.286255 
	C233.440125,672.316467 235.317871,673.375488 237.290787,674.186340 
	C243.141830,676.591064 246.031799,684.071655 253.624466,683.585632 
	C254.969055,683.499512 255.453705,685.314087 256.237427,686.379089 
	C260.064117,691.579468 263.799103,696.980774 269.011841,700.840454 
	C280.480286,709.332214 293.767944,714.428955 306.695709,720.145386 
	C309.049377,721.186096 311.681396,721.597534 313.786102,722.187622 
	C315.370087,720.619507 313.725128,718.656677 315.588287,717.707336 
	C317.612793,717.780334 317.830688,719.506226 318.045715,720.873596 
	C318.536743,723.995972 320.677673,725.005554 323.328674,725.173828 
	C339.024048,726.169861 354.265961,725.982910 368.885468,718.033081 
	C380.556732,711.686523 386.958862,702.408203 390.275360,690.218384 
	C390.431885,689.643250 389.877594,688.895996 389.976013,688.280396 
	C390.773804,683.290771 388.319733,678.450317 389.157288,673.556763 
	C389.693237,670.425476 389.675018,668.041260 387.593811,665.254883 
	C385.378174,662.288635 383.458679,658.832092 383.602020,654.710754 
	C383.705017,651.749939 380.536682,647.828552 384.137695,646.089111 
	C387.340515,644.541992 390.581909,647.699829 393.561768,649.491394 
	C403.382263,655.395508 411.371002,663.793030 421.099548,669.781067 
	C428.017487,674.039185 435.254913,676.468140 443.810699,674.378113 
	C455.398041,671.547424 463.131714,663.865479 469.244324,654.687439 
	C476.556061,643.708923 478.907990,630.788452 480.639893,617.868835 
	C481.836731,608.940613 482.902374,599.997009 480.784576,591.064026 
	C479.870636,587.208862 479.125671,583.244263 475.154205,580.986389 
	C470.422760,578.296448 466.524689,574.145020 460.890015,573.017090 
	C459.990601,572.836975 458.634430,572.153015 458.479340,571.475403 
	C457.080017,565.363037 451.988190,562.045349 448.000854,558.134766 
	C445.002472,555.194031 444.289246,551.296509 441.915955,548.133789 
	C439.009308,544.260437 435.330872,541.133972 432.495087,537.393494 
	C422.647552,524.404358 411.181244,512.705872 402.632080,498.656555 
	C394.413025,485.149719 386.325592,471.438232 380.201141,457.028259 
	C374.012848,442.467987 363.306732,435.503693 349.454620,431.286591 
	C344.362061,429.736176 339.213043,428.271790 333.992126,427.284180 
	C331.340546,426.782593 331.230743,423.393677 328.549866,423.419434 
	C321.067688,423.491364 313.521942,421.971710 306.115448,423.478241 
	C283.491913,428.080048 262.269470,435.887085 244.503922,451.334991 
	C241.182190,454.223358 239.542404,457.218292 241.012482,461.806213 
	C243.914215,470.862152 246.929581,479.849182 252.053955,487.931824 
	C261.435089,502.728607 269.549469,518.105042 273.257965,535.390137 
	C274.219055,539.869690 277.231384,542.942810 279.288239,546.669739 
	C284.055420,555.307434 294.372833,559.110168 298.299377,568.487183 
	C298.406860,568.743958 298.806213,568.968567 299.109192,569.040161 
	C304.958771,570.423645 307.338715,575.266418 309.495422,579.993103 
	C311.932892,585.335083 316.725861,588.745972 320.060364,593.354919 
	C322.884186,597.257996 326.570679,600.781250 327.188599,605.469788 
	C328.457642,615.098572 332.782196,623.439453 336.612854,632.064697 
	C340.442413,640.687439 342.759033,649.816895 344.433472,659.056702 
	C346.403931,669.929932 341.282440,680.141296 340.847870,690.834778 
	C340.794861,692.139832 339.613800,693.576904 338.618652,694.636230 
	C333.195160,700.409546 326.046997,701.555908 318.614258,701.794861 
	C317.565765,701.828613 316.556641,701.395508 316.191315,700.350708 
	C315.423737,698.155212 313.218506,697.843628 311.680695,696.656006 
	C308.456024,694.165588 304.028412,694.018616 300.971527,691.494202 
	C289.675385,682.165588 278.595032,672.576111 267.384888,663.142456 
	C264.510376,660.723511 265.662445,658.365784 267.396454,656.190002 
	C269.492981,653.559326 271.387512,654.894287 273.146881,656.866028 
	C284.240234,669.298767 298.780853,676.930786 312.944611,684.974060 
	C321.801758,690.003845 322.070038,689.540894 326.975220,680.445190 
	C327.930634,678.673584 327.923737,677.051575 327.786102,675.196838 
	C327.560242,672.153564 327.752625,668.872009 330.148712,666.823669 
	C334.274567,663.296448 334.095734,659.036865 333.112549,654.502502 
	C331.474762,646.948853 327.878998,640.189636 324.083710,633.579590 
	C312.267883,613.000610 297.478607,595.110046 276.152710,583.811890 
	C271.547852,581.372253 266.638245,580.274170 262.489899,576.264771 
	C260.094757,573.949890 256.504547,572.118103 253.906647,569.419861 
	C253.230423,568.717590 252.350555,568.181580 251.496994,567.684692 
	C245.089401,563.954102 238.879333,560.001038 235.061142,553.318848 
	C234.052795,551.554138 232.792389,550.006592 231.167114,548.810547 
	C217.352097,538.643372 203.407822,528.758179 187.505661,521.884583 
	C177.825256,517.700317 168.312912,516.914856 158.377640,520.297729 
	C153.190125,522.064026 149.151901,528.104004 151.779877,532.444763 
	C155.430893,538.475281 155.833023,545.786194 160.995377,551.315002 
	C165.211411,555.830139 169.145081,560.820496 171.298370,567.321289 
	C173.341034,573.488037 178.677612,578.280945 183.545807,582.986938 
	C186.061386,585.418640 188.583542,586.920593 191.844223,588.015503 
	C200.189987,590.818176 208.960754,590.379639 217.447556,591.952026 
	C219.342651,592.303162 221.983078,592.422607 221.576599,595.205139 
	C221.177277,597.938599 218.964386,597.626465 216.550766,597.642029 
	C205.225113,597.715027 194.618790,593.941467 182.856827,591.796143 
z"/>
<path fill="#000000" opacity="1.000000" stroke="none" 
	d="
M111.771576,484.767883 
	C109.273392,487.142151 107.661247,489.985535 103.703094,491.716980 
	C104.360489,484.425568 108.511841,479.846069 112.617142,475.320038 
	C119.408463,467.832794 128.679245,465.048431 137.928711,462.241730 
	C141.102585,461.278656 144.201309,460.070618 147.355499,459.039062 
	C149.568100,458.315430 151.845459,457.519226 154.233932,460.730347 
	C139.156082,467.224884 122.552628,470.722565 111.771576,484.767883 
z"/>
<path fill="#000000" opacity="1.000000" stroke="none" 
	d="
M120.144943,485.598755 
	C119.806885,486.185730 119.552292,486.452393 119.091629,486.905029 
	C117.472115,487.216187 116.223228,488.455170 114.647888,487.878387 
	C115.811028,482.131958 122.038414,476.353333 127.529396,476.059204 
	C126.095413,480.058807 121.802849,481.635834 120.144943,485.598755 
z"/>
<path fill="#000000" opacity="1.000000" stroke="none" 
	d="
M222.620789,447.005615 
	C223.493042,446.352997 224.010132,445.586334 225.665100,446.252930 
	C222.855591,449.642517 220.451981,452.993042 215.629257,455.240967 
	C216.701553,450.555695 220.076523,449.360718 222.620789,447.005615 
z"/>
<path fill="#000000" opacity="1.000000" stroke="none" 
	d="
M225.596939,687.356445 
	C223.492828,685.502258 220.495346,684.555847 221.745911,680.224304 
	C225.523758,684.409607 228.867920,688.114380 232.212067,691.819153 
	C231.982788,692.070251 231.753510,692.321350 231.524231,692.572449 
	C229.642349,690.905029 227.760452,689.237610 225.596939,687.356445 
z"/>
<path fill="#000000" opacity="1.000000" stroke="none" 
	d="
M235.150116,439.781555 
	C234.525497,440.485596 234.070190,440.959412 233.452942,441.603882 
	C231.751877,442.326172 230.212723,442.877808 228.673584,443.429443 
	C230.210419,439.763672 233.303955,438.106964 236.504547,436.350037 
	C237.240097,438.131104 235.834030,438.640503 235.150116,439.781555 
z"/>
<path fill="#000000" opacity="1.000000" stroke="none" 
	d="
M405.716522,607.790771 
	C397.484985,610.371338 390.250610,608.707275 382.195740,604.984192 
	C385.980103,602.536926 388.848297,600.601807 392.303314,599.510193 
	C395.715759,598.432129 399.569946,599.654419 403.124695,597.462097 
	C400.974731,594.689575 398.624756,593.023926 395.347229,594.121826 
	C386.609192,597.048767 377.987793,595.079895 369.290497,593.937805 
	C363.476196,593.174255 357.791412,590.881409 351.638031,593.921448 
	C349.458771,594.998108 345.623566,592.408508 344.270447,589.927368 
	C343.016205,587.627502 344.848450,585.113281 347.411987,583.989075 
	C349.060669,583.266113 349.903107,581.860413 351.021057,580.651978 
	C354.453979,576.941101 361.576355,575.382202 366.100342,577.134155 
	C368.071533,577.897522 367.141144,580.232727 369.088837,581.468262 
	C372.540497,579.149109 377.082703,581.112732 381.043732,579.224487 
	C381.560974,578.977844 382.518066,578.992981 382.944427,579.317078 
	C388.256836,583.354797 393.414001,580.545959 398.552917,578.977966 
	C400.654907,578.336670 403.018951,577.261780 404.868164,578.104919 
	C413.710480,582.136230 423.326233,580.805481 432.513550,582.299622 
	C440.746826,583.638489 449.325500,583.570862 457.684479,583.048035 
	C460.796112,582.853394 464.184265,580.940552 467.463135,579.852173 
	C468.824402,579.400330 470.074371,579.000000 470.973907,580.455933 
	C471.757111,581.723572 470.906677,582.680847 470.075653,583.517029 
	C465.151398,588.472107 460.331482,593.541138 455.220276,598.296387 
	C452.191864,601.113892 448.120636,601.925049 444.103882,602.220459 
	C431.318665,603.160706 418.724121,605.361877 405.716522,607.790771 
M421.036804,597.090881 
	C421.717010,594.717834 419.672333,594.760620 418.495941,594.651672 
	C416.496735,594.466492 415.764343,595.874329 415.777985,597.791138 
	C417.466919,598.352295 419.008179,597.821960 421.036804,597.090881 
z"/>
</svg>